<svg xmlns="http://www.w3.org/2000/svg" viewBox="0 0 168.683 42.984">
  <defs>
    <style>
      .cls-1 {
        fill: #fff;
      }
    </style>
  </defs>
  <g id="Group_39" data-name="Group 39" transform="translate(-19.252 -10.064)">
    <path id="Path_27" data-name="Path 27" class="cls-1" d="M12.716-23.834C6.46-23.834,1.428-18.5,1.428-11.968,1.428-5.406,6.46-.034,12.716-.034A11.663,11.663,0,0,0,24.31-11.968,11.626,11.626,0,0,0,12.716-23.834Zm0,20.536c-4.454,0-8.024-3.876-8.024-8.67a8.3,8.3,0,0,1,8.024-8.568,8.354,8.354,0,0,1,8.33,8.568A8.4,8.4,0,0,1,12.716-3.3Zm29.75-.442L44.064,0H47.77L37.434-23.9,27.132,0h3.6L32.4-3.74ZM41.038-6.834H33.83l3.6-8.3ZM58.922-.068A7.069,7.069,0,0,0,66.1-7.038c0-4.012-3.06-6.324-7.106-6.868-.238-.034-.816-.068-1.666-.17-2.04-.272-3.3-1.258-3.3-3.06a3.459,3.459,0,0,1,3.3-3.5h.51a6.146,6.146,0,0,1,4.59,2.38l1.53-2.822a8.128,8.128,0,0,0-6.12-2.618h-.51a6.532,6.532,0,0,0-6.392,6.562c0,3.57,3.026,5.542,6.392,6.188.646.1,1.088.1,1.6.238,2.448.374,4.284,1.326,4.284,3.672a4.139,4.139,0,0,1-4.284,4.08h-.884a7.471,7.471,0,0,1-5.814-2.89l-1.36,2.312v.068A8.938,8.938,0,0,0,58-.068ZM72.488-23.8h-3.3V.034h3.3ZM83.436-.068a7.069,7.069,0,0,0,7.174-6.97c0-4.012-3.06-6.324-7.106-6.868-.238-.034-.816-.068-1.666-.17-2.04-.272-3.3-1.258-3.3-3.06a3.459,3.459,0,0,1,3.3-3.5h.51a6.146,6.146,0,0,1,4.59,2.38l1.53-2.822a8.128,8.128,0,0,0-6.12-2.618h-.51a6.532,6.532,0,0,0-6.392,6.562c0,3.57,3.026,5.542,6.392,6.188.646.1,1.088.1,1.6.238,2.448.374,4.284,1.326,4.284,3.672a4.139,4.139,0,0,1-4.284,4.08h-.884a7.471,7.471,0,0,1-5.814-2.89l-1.36,2.312v.068a8.938,8.938,0,0,0,7.14,3.4ZM97.491-23.807v7.421H95.084v-7.421Zm4.1.177V-20.3h3.2V-.068h3.094V-23.63ZM125.833-7.14v-.034a7.274,7.274,0,0,0-3.2-5.984,6.432,6.432,0,0,0,1.768-3.434v-.17a6.828,6.828,0,0,0,.034-.816,6.139,6.139,0,0,0-5.168-6.154v-.034h-.2c-.17,0-.306-.068-.476-.068h-.238c-.136,0-.238.068-.34.068a6.031,6.031,0,0,0-5.508,5.1v.272a1.006,1.006,0,0,0-.068.34v.476a5.71,5.71,0,0,0,1.836,4.42,7.31,7.31,0,0,0-3.128,4.93c-.034.442-.1.816-.1,1.224a7.307,7.307,0,0,0,7.412,7A7.334,7.334,0,0,0,125.8-6.324a1.674,1.674,0,0,1,.034-.476v-.34Zm-7.82-7.31a3.162,3.162,0,0,1-2.72-3.2v-.17c0-.1.034-.136.034-.238v-.034a3.149,3.149,0,0,1,2.89-2.788h.612a3.253,3.253,0,0,1,2.788,3.3c0,.1-.068.238-.068.408a3.279,3.279,0,0,1-2.788,2.788h-.646C118.081-14.382,118.047-14.416,118.013-14.45Zm.442,11.492a2.124,2.124,0,0,1-.612-.068,4.382,4.382,0,0,1-3.74-4.76,4.311,4.311,0,0,1,4.42-3.638H119c0,.034.034.068.1.068a4.355,4.355,0,0,1,3.706,4.522A4.333,4.333,0,0,1,118.455-2.958Z" transform="translate(62 37)"/>
    <g id="Group_25" data-name="Group 25" transform="translate(19.252 10.064)">
      <path id="Path_12" data-name="Path 12" class="cls-1" d="M5.686,119.2a1.138,1.138,0,0,1,.437.124,4.569,4.569,0,0,0,3.48-.147,4.3,4.3,0,0,0,2.113-2.392,5.834,5.834,0,0,0,.383-1.993,7.59,7.59,0,0,0-.334-2.411,13.528,13.528,0,0,0-.747-1.879,7.72,7.72,0,0,0-.939-1.465,8.6,8.6,0,0,0-.663-.785,6.214,6.214,0,0,0-1.533-1.165,4.366,4.366,0,0,0-2.511-.461,4.191,4.191,0,0,0-3.229,2.307,8.4,8.4,0,0,0-.845,1.86c-.088.295-.157.594-.231.894-.01.043.01.109-.054.114s-.079-.057-.1-.109A8.327,8.327,0,0,1,.2,109.038a5.223,5.223,0,0,1,.767-3.529,4.625,4.625,0,0,1,1.774-1.56,9.417,9.417,0,0,1,2.158-.813c.467-.109.953-.138,1.411-.29a9.05,9.05,0,0,0,1.976-.856,12.285,12.285,0,0,0,1.066-.613,18.607,18.607,0,0,0,1.927-1.669A21.939,21.939,0,0,0,12.94,97.7a18.4,18.4,0,0,0,1.16-1.831,22.335,22.335,0,0,0,1.75-3.828,21.469,21.469,0,0,0,.939-3.481,5.926,5.926,0,0,0,.133-1.931c-.01-.057-.025-.138.064-.157a.077.077,0,0,1,.088.062c.138.485.452.894.609,1.37a4.031,4.031,0,0,1,.108,1.964,23.8,23.8,0,0,1-1.037,3.943c-.423,1.208-.826,2.425-1.307,3.619-.315.77-.634,1.541-.909,2.326a15.467,15.467,0,0,0-.619,2.24,17.772,17.772,0,0,0-.285,2.606,10.331,10.331,0,0,0,.7,4.361,11.212,11.212,0,0,0,1.922,3.12,14.433,14.433,0,0,0,1.612,1.65c.565.461,1.121.942,1.7,1.393.742.58,1.519,1.113,2.241,1.717.462.385.973.713,1.425,1.118.58.518,1.165,1.032,1.71,1.588a9.311,9.311,0,0,1,1.3,1.679,6.317,6.317,0,0,1,.988,2.677,1.9,1.9,0,0,1,.054.471c-.01.062,0,.133-.064.171a.172.172,0,0,1-.2-.052c-.147-.124-.295-.252-.447-.371a29.883,29.883,0,0,0-2.531-1.85,17.617,17.617,0,0,0-1.558-.937,18.6,18.6,0,0,0-2.644-1.108,9.16,9.16,0,0,0-3.367-.323,9.848,9.848,0,0,0-2.944.751,10.6,10.6,0,0,1-2.88.8,4.743,4.743,0,0,1-2.674-.528,10.364,10.364,0,0,1-2.158-1.541A.333.333,0,0,1,5.686,119.2Z" transform="translate(-0.16 -82.353)"/>
      <path id="Path_13" data-name="Path 13" class="cls-1" d="M322.083,0a8.6,8.6,0,0,1,2.03,1.027,8.585,8.585,0,0,1,2.148,1.988,5.481,5.481,0,0,1,1.1,2.787,6.415,6.415,0,0,1-.29,2.635,9.279,9.279,0,0,1-1.13,2.33,15.888,15.888,0,0,1-1.45,1.779,15.514,15.514,0,0,1-2,1.736,15.28,15.28,0,0,1-2.634,1.693c-.875.457-1.764.885-2.6,1.393a6.4,6.4,0,0,0-1.091.818,12.949,12.949,0,0,0-.949.908,8.8,8.8,0,0,0-1.587,2.6,9.758,9.758,0,0,0-.55,4.356,13.1,13.1,0,0,0,.8,3.686c.162.438.359.866.541,1.294.044.1.138.219.039.3s-.182-.048-.275-.09a5.747,5.747,0,0,1-1.671-1.246,12.71,12.71,0,0,1-1.209-1.484,13.779,13.779,0,0,1-1.243-2.4,10.45,10.45,0,0,1-.575-1.722c-.211-.794-.339-1.6-.472-2.4a3.539,3.539,0,0,1-.069-.823c.02-.323-.059-.652-.034-.965.029-.419,0-.842.059-1.256.064-.509.138-1.022.246-1.522.069-.328.2-.652.29-.975a5.728,5.728,0,0,1,.565-1.275,6.5,6.5,0,0,1,1.494-1.912,9.125,9.125,0,0,1,.939-.718,7.79,7.79,0,0,1,1.877-.78c.58-.176,1.165-.342,1.75-.518a17.061,17.061,0,0,0,3.779-1.684,12.043,12.043,0,0,0,2.438-1.864,6.179,6.179,0,0,0,1.5-2.454,4.159,4.159,0,0,0-.256-3.1A6.191,6.191,0,0,0,322.241.219c-.054-.052-.1-.1-.148-.162C322.078.048,322.083.029,322.083,0Z" transform="translate(-293.729)"/>
      <path id="Path_14" data-name="Path 14" class="cls-1" d="M486.4,147.721a6.711,6.711,0,0,1,.521-2.211,4.214,4.214,0,0,1,1.376-1.469,11.61,11.61,0,0,1,2.039-1.1,5.636,5.636,0,0,0,1.818-1.279,11.48,11.48,0,0,0,2.231-3.272,18.208,18.208,0,0,0,1.125-3.2c.059-.219.1-.447.138-.671.025-.162.089-.214.236-.109.054.038.1.076.157.114.442.3.442.319.3.847-.216.818-.442,1.641-.624,2.468-.147.671-.334,1.332-.477,2-.369,1.684-.831,3.343-1.209,5.022-.354,1.565-.752,3.12-1.135,4.68-.142.58-.236,1.17-.374,1.75-.265,1.1-.555,2.2-.826,3.3-.187.756-.359,1.512-.531,2.268-.025.1-.039.228.138.243a5.646,5.646,0,0,1,1.45.371,6.258,6.258,0,0,1,1.784.97,4.213,4.213,0,0,1,1.666,2.487,1.486,1.486,0,0,1-.339,1.132,2.077,2.077,0,0,1-1.543.818,3.25,3.25,0,0,1-1.612-.2,3.145,3.145,0,0,1-1.362-1,6.313,6.313,0,0,1-1.288-2.977c-.093-.542-.216-1.08-.256-1.631a7.669,7.669,0,0,1,.216-1.636,22.324,22.324,0,0,1,.58-2.72c.182-.647.4-1.284.59-1.926a16.852,16.852,0,0,0,.55-2.078c.025-.147-.049-.257-.064-.39-.123,0-.177.1-.251.152a3.672,3.672,0,0,1-1.637.49,4.9,4.9,0,0,0-2.536,1.06,7.843,7.843,0,0,0-1.828,2.625,5.5,5.5,0,0,0-.31.77c-.049.152-.093.114-.172.029a1.939,1.939,0,0,1-.452-1.175,3.534,3.534,0,0,1,.59-2.121,6.7,6.7,0,0,1,2.963-2.592,6.288,6.288,0,0,1,1.563-.5,3.95,3.95,0,0,0,1.563-.751,4.218,4.218,0,0,0,1.5-2.031,1.134,1.134,0,0,0,.034-.138c.039-.176-.039-.214-.2-.152s-.285.114-.427.181c-.821.395-1.656.766-2.512,1.08a7.512,7.512,0,0,0-1.769,1.027,5.81,5.81,0,0,0-1.017.927C486.648,147.374,486.53,147.549,486.4,147.721Z" transform="translate(-460.682 -127.97)"/>
      <path id="Path_15" data-name="Path 15" class="cls-1" d="M424.879,370.393c-.02.2-.2.309-.315.433a5.958,5.958,0,0,0-.742,1.075,7.525,7.525,0,0,0-.968,2.345,8.466,8.466,0,0,0-.157,2.611,8.969,8.969,0,0,0,.5,2.211,9.575,9.575,0,0,0,1.076,1.959.407.407,0,0,0,.1.1c.054.043.1.133.182.086.054-.033.025-.114.02-.176a4.842,4.842,0,0,1,1.494-4.052,5.863,5.863,0,0,1,2.187-1.346c.069-.024.138-.048.206-.067s.143-.033.226-.052a.322.322,0,0,1-.069.29,13.043,13.043,0,0,0-1.42,3.767,10.263,10.263,0,0,0-.27,2.154c-.015.442,0,.88,0,1.322a12.462,12.462,0,0,0,.437,2.915,17.853,17.853,0,0,0,2.025,4.76c.02.033.054.062.015.133-.3-.176-.614-.338-.9-.523-.9-.58-1.794-1.17-2.629-1.836q-.914-.728-1.769-1.531a15.327,15.327,0,0,1-2.325-2.72,10.175,10.175,0,0,1-1.42-3.053,9.555,9.555,0,0,1-.2-2.991,8.679,8.679,0,0,1,1.081-3.481,12.026,12.026,0,0,1,1.9-2.692c.295-.309.57-.632.87-.932.236-.238.5-.447.752-.671A.09.09,0,0,1,424.879,370.393Z" transform="translate(-399.483 -352.768)"/>
      <path id="Path_16" data-name="Path 16" class="cls-1" d="M368.846,69.1a4.317,4.317,0,0,1,1.489.6,3,3,0,0,1,1.317,1.669,9.569,9.569,0,0,1,.241,1.113,5.814,5.814,0,0,1-.059.709c0,.176.064.19.2.1a4.006,4.006,0,0,1,1.248-.5,5.819,5.819,0,0,1,1.184-.124,20.431,20.431,0,0,0,2.094-.119,9.035,9.035,0,0,0,1.578-.371,3.3,3.3,0,0,0,.831-.309c.059.071.024.124-.02.171a8.025,8.025,0,0,1-1.6,1.308,10.729,10.729,0,0,1-2.526,1.08c-.639.181-1.293.276-1.936.442a13.912,13.912,0,0,0-2.148.642,4.562,4.562,0,0,0-1.686,1.108.579.579,0,0,1-.275.219c-.015-.2.113-.366.152-.542.138-.594.344-1.179.447-1.779a9.29,9.29,0,0,0,.226-1.84c0-.152.113-.266.1-.409a5.9,5.9,0,0,0-.693-2.773c-.049-.071-.084-.152-.172-.19C368.915,69.243,368.876,69.171,368.846,69.1Z" transform="translate(-350.66 -65.814)"/>
      <path id="Path_17" data-name="Path 17" class="cls-1" d="M90.363,274a2.631,2.631,0,0,1,2.9-2.563,2.667,2.667,0,0,1,2.516,2.7,2.729,2.729,0,0,1-2.752,2.554A2.651,2.651,0,0,1,90.363,274Z" transform="translate(-85.928 -258.521)"/>
      <path id="Path_18" data-name="Path 18" class="cls-1" d="M367.733,68.49c.029.071.069.143-.015.2-.03-.048-.054-.09-.084-.138s-.049-.076-.01-.1S367.694,68.481,367.733,68.49Z" transform="translate(-349.547 -65.204)"/>
    </g>
    <g id="Group_38" data-name="Group 38">
      <path id="Path_28" data-name="Path 28" class="cls-1" d="M4.84-3.718A2.071,2.071,0,0,0,5.2-4.356l.044-.11a2.574,2.574,0,0,0,.132-.814A2.409,2.409,0,0,0,3-7.722,2.4,2.4,0,0,0,.627-5.28v.055h.935V-5.28A1.446,1.446,0,0,1,3-6.754,1.444,1.444,0,0,1,4.433-5.28a1.493,1.493,0,0,1-.231.814l-.044.077L.55-.957V.011H5.379V-.957H1.925Zm8.547-4H8.822v1H12.8L8.822,0h1.221l4.631-7.722H13.387Zm23.936.011a3.75,3.75,0,0,0-3.652,3.839A3.762,3.762,0,0,0,37.323-.011a3.773,3.773,0,0,0,3.751-3.861A3.761,3.761,0,0,0,37.323-7.711Zm0,6.644a2.7,2.7,0,0,1-2.6-2.805,2.685,2.685,0,0,1,2.6-2.772,2.7,2.7,0,0,1,2.695,2.772A2.718,2.718,0,0,1,37.323-1.067Zm10.6-.363a1.744,1.744,0,0,1-1.089.4,1.723,1.723,0,0,1-1.727-1.727,1.728,1.728,0,0,1,1.727-1.716,1.612,1.612,0,0,1,1.056.374l.154.11.462-.946-.11-.055a2.687,2.687,0,0,0-1.562-.495,2.725,2.725,0,0,0-2.75,2.728,2.737,2.737,0,0,0,2.75,2.75A2.634,2.634,0,0,0,48.4-.528l.11-.044-.462-.979Zm6.006-4.081V-8.25H52.91v2.739h-1.5v1.045h1.5V0h1.023V-4.466h1.441V-5.511Zm9.7,1.738v.968H67.32v-.968Zm15.8-.473a2.123,2.123,0,0,0,.6-1.452,1.967,1.967,0,0,0-1.947-1.991A1.974,1.974,0,0,0,76.142-5.7h.924a1.04,1.04,0,0,1,1.023-1.045A1.024,1.024,0,0,1,79.1-5.7a1.039,1.039,0,0,1-.913,1.045h-.1v.946a1.392,1.392,0,0,1,1.4,1.364,1.385,1.385,0,0,1-1.4,1.364,1.366,1.366,0,0,1-1.4-1.3h-.979A2.342,2.342,0,0,0,78.089-.022a2.348,2.348,0,0,0,2.376-2.321A2.265,2.265,0,0,0,79.431-4.246Zm4.092-3.4v1.078h1.034V-.022h1V-7.645Zm24.75-.066a3.75,3.75,0,0,0-3.652,3.839,3.762,3.762,0,0,0,3.652,3.861,3.773,3.773,0,0,0,3.751-3.861A3.761,3.761,0,0,0,108.273-7.711Zm0,6.644a2.7,2.7,0,0,1-2.6-2.805,2.685,2.685,0,0,1,2.6-2.772,2.7,2.7,0,0,1,2.695,2.772A2.718,2.718,0,0,1,108.273-1.067Zm10.6-.363a1.744,1.744,0,0,1-1.089.4,1.723,1.723,0,0,1-1.727-1.727,1.728,1.728,0,0,1,1.727-1.716,1.612,1.612,0,0,1,1.056.374l.154.11.462-.946-.11-.055a2.687,2.687,0,0,0-1.562-.495,2.725,2.725,0,0,0-2.75,2.728,2.737,2.737,0,0,0,2.75,2.75,2.634,2.634,0,0,0,1.562-.517l.11-.044L119-1.551Zm6.006-4.081V-8.25H123.86v2.739h-1.5v1.045h1.5V0h1.023V-4.466h1.441V-5.511Z" transform="translate(61.611 53.037)"/>
      <path id="Path_30" data-name="Path 30" class="cls-1" d="M2.088-4.008V-6H1.344v1.992H.256v.76H1.344V0h.744V-3.248H3.136v-.76ZM8.768-2.1A1.953,1.953,0,0,0,6.912-3.928a1.8,1.8,0,0,0-1.128.416V-6H5.04V-.016l.032.008h.7L5.784-2.3a1.209,1.209,0,0,1,1.128-.9A1.182,1.182,0,0,1,8.04-2.28V-.008h.712C8.768-1.864,8.768-1.984,8.768-2.1Z" transform="translate(80.481 47.381)"/>
      <path id="Path_29" data-name="Path 29" class="cls-1" d="M1.7-2.432c-.64-.024-.712-.256-.712-.416A.46.46,0,0,1,1.5-3.3a.88.88,0,0,1,.656.344l.1.112.36-.64-.048-.056A1.427,1.427,0,0,0,1.5-4.016h-.08A1.156,1.156,0,0,0,.3-2.848c0,.744.744,1.1,1.368,1.12.424.064.592.224.592.5a.554.554,0,0,1-.576.552H1.664a1.137,1.137,0,0,1-.976-.416L.6-1.224.264-.648.3-.6A1.5,1.5,0,0,0,1.52-.008h.16A1.223,1.223,0,0,0,2.928-1.224,1.24,1.24,0,0,0,1.7-2.432Zm5.16-1.576V-6H6.12v1.992H5.032v.76H6.12V0h.744V-3.248H7.912v-.76Z" transform="translate(152.481 47.381)"/>
    </g>
  </g>
</svg>
